<svg width="460" height="331" viewBox="0 0 460 331" fill="none" xmlns="http://www.w3.org/2000/svg">
<rect x="238" y="8" width="208.247" height="81.9595" fill="#3FFFF3"/>
<path d="M334.617 107.973V49.0527H419.254V107.973H334.617Z" stroke="#04146C"/>
<path d="M348.186 69.0332H341.488V75.4687H348.186V69.0332Z" stroke="#04146C" stroke-linecap="round" stroke-linejoin="round"/>
<path d="M334.117 62.1294H419.023" stroke="#04146C" stroke-linecap="round" stroke-linejoin="round"/>
<path d="M408.279 51.668V57.1286" stroke="#04146C" stroke-linecap="round" stroke-linejoin="round"/>
<path d="M410.643 53.334H414.901" stroke="#04146C" stroke-linecap="round" stroke-linejoin="round"/>
<path d="M410.643 54.2788H414.901" stroke="#04146C" stroke-linecap="round" stroke-linejoin="round"/>
<path d="M410.643 55.2314H414.901" stroke="#04146C" stroke-linecap="round" stroke-linejoin="round"/>
<path d="M410.643 56.187H414.901" stroke="#04146C" stroke-linecap="round" stroke-linejoin="round"/>
<path d="M343.049 118.327L343.049 118.82L343.541 118.82" stroke="#04146C" stroke-width="0.692813" stroke-linecap="round" stroke-linejoin="round"/>
<path d="M346.434 118.82L429.628 118.82" stroke="#04146C" stroke-width="0.692813" stroke-linecap="round" stroke-linejoin="round" stroke-dasharray="0.68 2.03"/>
<path d="M431.064 118.82L431.557 118.82L431.557 118.327" stroke="#04146C" stroke-width="0.692813" stroke-linecap="round" stroke-linejoin="round"/>
<path d="M431.566 115.364L431.566 61.5781" stroke="#04146C" stroke-width="0.692813" stroke-linecap="round" stroke-linejoin="round" stroke-dasharray="0.69 2.08"/>
<path d="M431.557 60.1001L431.557 59.6067L431.064 59.6067" stroke="#04146C" stroke-width="0.692813" stroke-linecap="round" stroke-linejoin="round"/>
<path d="M387.317 117.357C388.121 117.357 388.772 118.011 388.772 118.818C388.772 119.624 388.121 120.278 387.317 120.278C386.513 120.278 385.861 119.624 385.861 118.818C385.861 118.011 386.513 117.357 387.317 117.357Z" fill="#04146C" stroke="#04146C" stroke-width="0.692813" stroke-linecap="round" stroke-linejoin="round"/>
<path d="M431.567 87.7512C432.371 87.7512 433.022 88.4051 433.022 89.2118C433.022 90.0184 432.371 90.6724 431.567 90.6724C430.763 90.6724 430.111 90.0184 430.111 89.2118C430.111 88.4051 430.763 87.7512 431.567 87.7512Z" fill="#04146C" stroke="#04146C" stroke-width="0.692813" stroke-linecap="round" stroke-linejoin="round"/>
<path d="M433.256 61.3022L429.863 61.3022L429.863 57.8975L433.256 57.8975L433.256 61.3022Z" fill="#04146C" stroke="#04146C" stroke-width="0.692813" stroke-linecap="round" stroke-linejoin="round"/>
<path d="M433.256 120.517L429.863 120.517L429.863 117.112L433.256 117.112L433.256 120.517Z" fill="#04146C" stroke="#04146C" stroke-width="0.692813" stroke-linecap="round" stroke-linejoin="round"/>
<path d="M344.752 120.518L341.359 120.518L341.359 117.113L344.752 117.113L344.752 120.518Z" fill="#04146C" stroke="#04146C" stroke-width="0.692813" stroke-linecap="round" stroke-linejoin="round"/>
<rect x="180.225" y="223.225" width="58.4682" height="41.353" fill="#04146C" stroke="#04146C" stroke-width="0.5"/>
<rect x="167.562" y="261.108" width="83.797" height="6.51047" fill="#04146C"/>
<path d="M343.529 29.8647H74.9156C68.9475 29.8647 64.1094 34.7201 64.1094 40.7095V232.883C64.1094 238.873 68.9475 243.728 74.9156 243.728H343.529C349.497 243.728 354.336 238.873 354.336 232.883V40.7095C354.336 34.7201 349.497 29.8647 343.529 29.8647Z" fill="#04146C" stroke="#04146C" stroke-linecap="round" stroke-linejoin="round"/>
<path d="M64.1094 210.49H354.336V232.883C354.336 235.759 353.197 238.517 351.17 240.551C349.144 242.585 346.395 243.727 343.529 243.727H74.9283C72.0624 243.727 69.3138 242.585 67.2872 240.551C65.2606 238.517 64.1221 235.759 64.1221 232.883V210.49H64.1094Z" fill="white" stroke="#04146C" stroke-linecap="round" stroke-linejoin="round"/>
<path d="M339.746 43.166H78.7148V194.263H339.746V43.166Z" fill="white"/>
<path d="M339.746 43.166H78.7148V194.263H339.746V43.166Z" stroke="white" stroke-linecap="round" stroke-linejoin="round"/>
<ellipse cx="208.94" cy="227.128" rx="6.20718" ry="6.22929" fill="#04146C"/>
<path d="M251.747 72.4331L212.435 91.121L207.262 118.873L268.071 131.545L285.898 118.873L291.84 173.288H181.91" stroke="#04146C"/>
<path d="M221.39 138.356L208.303 127.458L209.848 144.453L214.022 138.445L221.39 138.356Z" fill="#04146C"/>
<path d="M215.286 88.0054H210.369V92.94H215.286V88.0054Z" fill="white" stroke="#04146C" stroke-linecap="round" stroke-linejoin="round"/>
<path d="M184.898 170.202H179.98V175.136H184.898V170.202Z" fill="white" stroke="#04146C" stroke-linecap="round" stroke-linejoin="round"/>
<path d="M210.021 116.038H205.104V120.972H210.021V116.038Z" fill="white" stroke="#04146C" stroke-linecap="round" stroke-linejoin="round"/>
<path d="M251.497 71.3945H246.58V76.3292H251.497V71.3945Z" fill="white" stroke="#04146C" stroke-linecap="round" stroke-linejoin="round"/>
<path d="M271.98 128.383H267.062V133.318H271.98V128.383Z" fill="white" stroke="#04146C" stroke-linecap="round" stroke-linejoin="round"/>
<path d="M293.446 170.573H288.529V175.507H293.446V170.573Z" fill="white" stroke="#04146C" stroke-linecap="round" stroke-linejoin="round"/>
<path d="M288.47 116.844H283.553V121.779H288.47V116.844Z" fill="white" stroke="#04146C" stroke-linecap="round" stroke-linejoin="round"/>
<path d="M115.445 208.605V207.979H114.821" stroke="#04146C" stroke-width="0.397951" stroke-linecap="round" stroke-linejoin="round"/>
<path d="M111.148 207.979H5.60075" stroke="#04146C" stroke-width="0.397951" stroke-linecap="round" stroke-linejoin="round" stroke-dasharray="0.39 1.17"/>
<path d="M3.7832 207.979H3.15853V208.605" stroke="#04146C" stroke-width="0.397951" stroke-linecap="round" stroke-linejoin="round"/>
<path d="M3.14453 212.361V280.598" stroke="#04146C" stroke-width="0.397951" stroke-linecap="round" stroke-linejoin="round" stroke-dasharray="0.4 1.19"/>
<path d="M3.15853 282.476V283.102H3.7832" stroke="#04146C" stroke-width="0.397951" stroke-linecap="round" stroke-linejoin="round"/>
<path d="M7.43278 283.102H112.98" stroke="#04146C" stroke-width="0.397951" stroke-linecap="round" stroke-linejoin="round" stroke-dasharray="0.39 1.17"/>
<path d="M114.821 283.102H115.445V282.476" stroke="#04146C" stroke-width="0.397951" stroke-linecap="round" stroke-linejoin="round"/>
<path d="M115.432 278.721V210.484" stroke="#04146C" stroke-width="0.397951" stroke-linecap="round" stroke-linejoin="round" stroke-dasharray="0.4 1.19"/>
<path d="M59.2883 209.834C58.2685 209.834 57.4419 209.004 57.4419 207.98C57.4419 206.957 58.2685 206.127 59.2883 206.127C60.3081 206.127 61.1348 206.957 61.1348 207.98C61.1348 209.004 60.3081 209.834 59.2883 209.834Z" fill="#04146C" stroke="#04146C" stroke-width="0.397951" stroke-linecap="round" stroke-linejoin="round"/>
<path d="M115.431 247.394C114.411 247.394 113.584 246.564 113.584 245.541C113.584 244.518 114.411 243.688 115.431 243.688C116.451 243.688 117.277 244.518 117.277 245.541C117.277 246.564 116.451 247.394 115.431 247.394Z" fill="#04146C" stroke="#04146C" stroke-width="0.397951" stroke-linecap="round" stroke-linejoin="round"/>
<path d="M59.2883 284.956C58.2685 284.956 57.4419 284.126 57.4419 283.103C57.4419 282.079 58.2685 281.25 59.2883 281.25C60.3081 281.25 61.1348 282.079 61.1348 283.103C61.1348 284.126 60.3081 284.956 59.2883 284.956Z" fill="#04146C" stroke="#04146C" stroke-width="0.397951" stroke-linecap="round" stroke-linejoin="round"/>
<path d="M3.14573 247.394C2.12596 247.394 1.29928 246.564 1.29928 245.541C1.29928 244.517 2.12596 243.688 3.14573 243.688C4.1655 243.688 4.99219 244.517 4.99219 245.541C4.99219 246.564 4.1655 247.394 3.14573 247.394Z" fill="#04146C" stroke="#04146C" stroke-width="0.397951" stroke-linecap="round" stroke-linejoin="round"/>
<path d="M1.00044 280.948H5.30469V285.268H1.00044V280.948Z" fill="#04146C" stroke="#04146C" stroke-width="0.397951" stroke-linecap="round" stroke-linejoin="round"/>
<path d="M1.00044 205.826H5.30469V210.145H1.00044V205.826Z" fill="#04146C" stroke="#04146C" stroke-width="0.397951" stroke-linecap="round" stroke-linejoin="round"/>
<path d="M113.286 280.948H117.59V285.268H113.286V280.948Z" fill="#04146C" stroke="#04146C" stroke-width="0.397951" stroke-linecap="round" stroke-linejoin="round"/>
<path d="M113.286 205.826H117.59V210.145H113.286V205.826Z" fill="#04146C" stroke="#04146C" stroke-width="0.397951" stroke-linecap="round" stroke-linejoin="round"/>
<path d="M10.2592 214.629H107.984V276.944H10.2592V214.629Z" fill="white" stroke="#04146C" stroke-width="1.19385" stroke-linecap="round" stroke-linejoin="round"/>
<path d="M10.2592 258.539L21.1258 269.445L50.5195 239.946L62.8833 252.354L82.5955 232.572L107.984 258.039V276.945H10.2592V258.539Z" fill="#04146C" stroke="#04146C" stroke-width="1.19385" stroke-linecap="round" stroke-linejoin="round"/>
<path d="M93.2803 137.419V52.9146H152.867V137.419H93.2803Z" stroke="#04146C" stroke-width="0.41613"/>
<path d="M102.429 73.0562H117.844C119.655 73.0562 121.124 74.5295 121.124 76.3485V92.3826C121.124 94.2016 119.655 95.6749 117.844 95.6749H102.429C100.619 95.6749 99.1495 94.2016 99.1495 92.3826V76.3485C99.1495 74.5295 100.619 73.0562 102.429 73.0562Z" stroke="#04146C" stroke-width="0.41613"/>
<path d="M93.2803 63.1932V52.9146H152.867V63.1932H93.2803Z" stroke="#04146C" stroke-width="0.41613"/>
<path d="M107.176 78.5092L107.177 78.5095L116.442 86.3489L116.403 86.4151L116.531 86.5286C116.609 86.5982 116.666 86.6909 116.693 86.795C116.72 86.8991 116.715 87.0091 116.68 87.1105C116.645 87.2118 116.581 87.2992 116.497 87.3617C116.415 87.4235 116.316 87.4583 116.215 87.4624H111.281H111.169L111.108 87.5552L108.381 91.6545C108.333 91.7218 108.271 91.7762 108.199 91.8137C108.127 91.8516 108.047 91.8712 107.966 91.8711H107.966H107.817C107.728 91.8433 107.647 91.79 107.585 91.7164L107.426 91.8509L107.585 91.7164C107.517 91.6368 107.475 91.5374 107.464 91.4315L106.359 78.9602L106.359 78.9602L106.359 78.9589C106.349 78.8558 106.37 78.7523 106.417 78.6617C106.465 78.5711 106.537 78.4977 106.625 78.4504C106.712 78.403 106.811 78.3835 106.909 78.3939C107.007 78.4043 107.1 78.4442 107.176 78.5092Z" stroke="#04146C" stroke-width="0.41613"/>
<path d="M138.506 86.3343L138.399 86.3357L138.338 86.4238L135.127 91.0511L133.907 77.7004L144.179 86.261L138.506 86.3343Z" stroke="#04146C" stroke-width="0.41613"/>
<path d="M145.216 94.0537L147.229 92.157L147.388 94.4231L145.216 94.0537Z" stroke="#04146C" stroke-width="0.41613"/>
<path d="M100.229 127.234L112.297 113.009L113.902 114.38L101.834 128.605L100.229 127.234Z" stroke="#04146C" stroke-width="0.41613"/>
<path d="M102.577 112.495C102.755 112.188 102.904 111.906 103.022 111.643C103.282 111.068 103.405 110.565 103.364 110.063C103.323 109.561 103.119 109.084 102.771 108.557C102.608 108.313 102.413 108.054 102.184 107.775C102.494 107.955 102.778 108.106 103.044 108.227C103.618 108.487 104.121 108.611 104.624 108.569C105.127 108.528 105.604 108.324 106.131 107.974C106.374 107.812 106.63 107.617 106.907 107.39C106.725 107.702 106.573 107.988 106.452 108.256C106.191 108.833 106.066 109.337 106.106 109.84C106.146 110.344 106.348 110.821 106.697 111.348C106.857 111.59 107.05 111.845 107.275 112.12C106.969 111.941 106.688 111.79 106.425 111.67C105.851 111.408 105.348 111.282 104.846 111.322C104.344 111.362 103.867 111.566 103.343 111.916C103.103 112.077 102.85 112.27 102.577 112.495Z" stroke="#04146C" stroke-width="0.41613"/>
<path d="M116.558 113.977C116.593 113.909 116.625 113.842 116.654 113.776C116.816 113.416 116.898 113.092 116.873 112.764C116.849 112.436 116.719 112.127 116.502 111.794C116.459 111.728 116.412 111.66 116.361 111.591C116.435 111.629 116.507 111.664 116.576 111.696C116.937 111.86 117.261 111.944 117.589 111.921C117.917 111.897 118.224 111.767 118.555 111.549C118.617 111.507 118.682 111.463 118.747 111.414C118.712 111.484 118.68 111.552 118.65 111.618C118.489 111.978 118.407 112.302 118.431 112.63C118.456 112.958 118.585 113.267 118.803 113.6C118.844 113.663 118.888 113.727 118.936 113.793C118.865 113.756 118.796 113.722 118.729 113.692C118.367 113.526 118.043 113.443 117.715 113.467C117.387 113.492 117.079 113.624 116.749 113.843C116.687 113.884 116.623 113.929 116.558 113.977Z" stroke="#04146C" stroke-width="0.41613"/>
<path d="M114.449 120.817C114.552 120.573 114.604 120.346 114.584 120.115C114.565 119.888 114.478 119.676 114.34 119.457C114.581 119.559 114.805 119.61 115.033 119.59C115.263 119.57 115.477 119.481 115.698 119.34C115.595 119.584 115.543 119.811 115.562 120.043C115.58 120.273 115.667 120.489 115.806 120.713C115.567 120.61 115.343 120.557 115.114 120.575C114.885 120.592 114.671 120.678 114.449 120.817Z" stroke="#04146C" stroke-width="0.41613"/>
<path d="M142.515 126.472L142.408 126.473L142.347 126.561L139.555 130.576L138.495 118.935L147.465 126.414L142.515 126.472Z" stroke="#04146C" stroke-width="0.41613"/>
<path d="M136.568 124.062C134.26 124.062 132.174 123.379 130.671 122.287C129.166 121.194 128.257 119.702 128.257 118.076C128.257 116.449 129.166 114.957 130.671 113.864C132.174 112.772 134.26 112.089 136.568 112.089C138.875 112.089 140.961 112.772 142.465 113.864C143.969 114.957 144.879 116.449 144.879 118.076C144.879 119.703 143.973 121.194 142.471 122.287C140.969 123.379 138.883 124.062 136.568 124.062ZM136.568 112.415C134.385 112.415 132.397 113.035 130.949 114.048C129.502 115.061 128.58 116.481 128.58 118.076C128.58 119.67 129.502 121.09 130.949 122.103C132.397 123.117 134.385 123.736 136.568 123.736C138.751 123.736 140.739 123.112 142.187 122.097C143.633 121.082 144.556 119.662 144.556 118.076C144.556 116.489 143.633 115.069 142.187 114.054C140.739 113.039 138.751 112.415 136.568 112.415Z" stroke="#04146C" stroke-width="0.41613"/>
<path d="M131.39 122.819C131.013 122.822 130.644 122.713 130.33 122.505C130.016 122.296 129.77 121.999 129.625 121.65C129.479 121.302 129.441 120.917 129.513 120.546C129.586 120.175 129.767 119.834 130.034 119.567C130.3 119.3 130.639 119.118 131.009 119.045C131.378 118.972 131.761 119.011 132.108 119.157C132.455 119.303 132.751 119.549 132.959 119.865C133.166 120.18 133.276 120.551 133.273 120.929C133.269 121.429 133.069 121.908 132.717 122.262C132.364 122.615 131.888 122.816 131.39 122.819ZM131.394 119.351C131.081 119.348 130.775 119.437 130.514 119.609C130.252 119.78 130.048 120.025 129.926 120.313C129.804 120.602 129.77 120.919 129.829 121.227C129.887 121.534 130.036 121.817 130.255 122.04C130.474 122.263 130.755 122.415 131.061 122.478C131.367 122.54 131.685 122.51 131.973 122.391C132.262 122.272 132.509 122.07 132.683 121.809C132.857 121.549 132.949 121.243 132.949 120.93C132.949 120.515 132.786 120.116 132.495 119.821C132.204 119.525 131.808 119.356 131.394 119.351Z" stroke="#04146C" stroke-width="0.41613"/>
<path d="M130.902 124.983L130.797 124.682C131.648 124.398 132.371 123.816 132.83 123.038L132.835 123.029L132.84 123.019C133.098 122.462 133.159 121.836 133.017 121.242L133.331 121.135C133.499 121.805 133.433 122.514 133.141 123.144C132.883 123.604 132.536 124.009 132.121 124.333C131.755 124.62 131.342 124.839 130.902 124.983Z" stroke="#04146C" stroke-width="0.41613"/>
<path d="M101.361 58.4952L103.392 60.2072V60.6792L100.611 58.3356L103.392 55.9784V56.4493L101.36 58.1775L101.173 58.3368L101.361 58.4952Z" stroke="#04146C" stroke-width="0.41613"/>
<path d="M97.7393 58.4946L99.7554 60.2067V60.6792L96.9747 58.3356L99.7554 55.9784V56.4498L97.7385 58.1781L97.5533 58.3368L97.7393 58.4946Z" stroke="#04146C" stroke-width="0.41613"/>
<path d="M372.971 74.9141C372.999 74.9384 373.024 74.9657 373.046 74.9956" stroke="#04146C" stroke-linecap="round" stroke-linejoin="round"/>
<path d="M379.896 81.7256L380.669 82.5062C380.644 82.6043 380.591 82.6933 380.518 82.7625C380.451 82.8341 380.367 82.8864 380.274 82.914L379.49 82.1217L372.635 75.2652L373.03 74.8574L379.896 81.7256Z" stroke="#04146C" stroke-linecap="round" stroke-linejoin="round"/>
<path d="M380.818 81.8802C380.926 81.9873 381.002 82.1225 381.038 82.2707C381.074 82.4188 381.068 82.5741 381.021 82.7191C380.988 82.8513 380.92 82.972 380.824 83.0686C380.729 83.1583 380.616 83.2259 380.493 83.2667C380.346 83.3154 380.189 83.3227 380.039 83.2878C379.888 83.2528 379.75 83.177 379.64 83.0686C379.53 82.9575 379.453 82.8182 379.417 82.6662C379.381 82.5141 379.388 82.355 379.436 82.2064C379.477 82.0811 379.546 81.9673 379.64 81.8744C379.733 81.7764 379.852 81.7059 379.982 81.6705C380.127 81.6247 380.282 81.62 380.429 81.657C380.577 81.694 380.711 81.7713 380.818 81.8802V81.8802Z" stroke="#04146C" stroke-linecap="round" stroke-linejoin="round"/>
<path d="M373.047 74.8335V75.1772V75.3228H372.576L372.884 75.0083L372.971 74.9151L373.047 74.8335Z" stroke="#04146C" stroke-miterlimit="10"/>
<path d="M386.187 78.5147L388.625 84.9576L382.959 90.6548L376.539 88.2315L372 75.8991L372.882 75.0078L372.969 74.9146L373.881 74L386.187 78.5147Z" stroke="#04146C" stroke-linecap="round" stroke-linejoin="round"/>
<path d="M396.18 89.0469L387.531 97.7443L382.957 90.6606L388.622 84.9575L396.18 89.0469Z" stroke="#04146C" stroke-linecap="round" stroke-linejoin="round"/>
<rect x="0.140081" y="0.512569" width="30.3722" height="110.317" transform="matrix(0.867741 0.496999 -0.494348 0.869275 364.901 174.299)" fill="white" stroke="#04146C" stroke-width="0.750316"/>
<ellipse rx="3.11283" ry="3.11726" transform="matrix(0.980104 0.193713 -0.192752 0.982198 329.22 267.344)" fill="#04146C"/>
<path d="M383.736 190.837L367.174 181.367L360.443 193.223L377.005 202.693L383.736 190.837Z" fill="#04146C"/>
<path opacity="0.7" d="M383.74 190.835L367.178 181.365L360.447 193.221L377.009 202.691L383.74 190.835Z" fill="white"/>
<path d="M375.444 205.499L358.854 196.013L352.123 207.868L368.713 217.355L375.444 205.499Z" fill="#04146C"/>
<path opacity="0.3" d="M375.456 205.502L358.865 196.016L352.134 207.871L368.725 217.357L375.456 205.502Z" fill="white"/>
<path d="M367.083 220.194L350.521 210.724L343.791 222.58L360.353 232.049L367.083 220.194Z" fill="#04146C"/>
<path d="M358.775 234.886L342.213 225.416L335.482 237.272L352.044 246.741L358.775 234.886Z" fill="#04146C"/>
<path opacity="0.2" d="M358.777 234.886L342.215 225.417L335.484 237.272L352.046 246.742L358.777 234.886Z" fill="#04146C"/>
<path d="M350.444 249.532L333.854 240.046L327.123 251.902L343.713 261.388L350.444 249.532Z" fill="#04146C"/>
<path opacity="0.3" d="M350.446 249.532L333.855 240.046L327.125 251.902L343.715 261.388L350.446 249.532Z" fill="#04146C"/>
<rect x="-0.0940163" y="0.523055" width="30.3826" height="110.28" transform="matrix(0.569195 0.823645 -0.819799 0.57058 401.953 198.952)" fill="white" stroke="#04146C" stroke-width="0.750316"/>
<ellipse rx="3.11365" ry="3.11643" transform="matrix(0.800864 0.598742 -0.596085 0.802999 329.646 267.281)" fill="#04146C"/>
<path d="M411.702 221.839L400.828 206.128L389.661 213.913L400.536 229.624L411.702 221.839Z" fill="#04146C"/>
<path opacity="0.7" d="M411.704 221.84L400.83 206.129L389.663 213.914L400.538 229.625L411.704 221.84Z" fill="white"/>
<path d="M397.93 231.482L387.037 215.744L375.87 223.528L386.763 239.266L397.93 231.482Z" fill="#04146C"/>
<path opacity="0.3" d="M397.922 231.485L387.029 215.747L375.862 223.531L386.756 239.269L397.922 231.485Z" fill="white"/>
<path d="M384.064 241.12L373.189 225.409L362.023 233.193L372.897 248.904L384.064 241.12Z" fill="#04146C"/>
<path d="M370.257 250.785L359.383 235.074L348.216 242.859L359.09 258.57L370.257 250.785Z" fill="#04146C"/>
<path opacity="0.2" d="M370.263 250.781L359.389 235.07L348.222 242.855L359.096 258.566L370.263 250.781Z" fill="#04146C"/>
<path d="M356.448 260.392L345.555 244.654L334.388 252.439L345.281 268.177L356.448 260.392Z" fill="#04146C"/>
<path opacity="0.3" d="M356.448 260.396L345.555 244.657L334.388 252.442L345.281 268.18L356.448 260.396Z" fill="#04146C"/>
<rect x="-0.31844" y="0.424688" width="30.4071" height="110.193" transform="matrix(0.139785 0.991679 -0.988602 0.140345 424.507 239.101)" fill="white" stroke="#04146C" stroke-width="0.750316"/>
<ellipse rx="3.1156" ry="3.11449" transform="matrix(0.447261 0.895393 -0.892532 0.449014 329.385 267.314)" fill="#04146C"/>
<path d="M423.041 263.711L420.357 244.772L406.896 246.694L409.58 265.632L423.041 263.711Z" fill="#04146C"/>
<path opacity="0.7" d="M423.041 263.706L420.357 244.768L406.896 246.689L409.58 265.627L423.041 263.706Z" fill="white"/>
<path d="M406.415 266.112L403.727 247.14L390.265 249.061L392.954 268.033L406.415 266.112Z" fill="#04146C"/>
<path opacity="0.3" d="M406.401 266.115L403.713 247.143L390.252 249.064L392.94 268.036L406.401 266.115Z" fill="white"/>
<path d="M389.711 268.473L387.027 249.534L373.566 251.455L376.25 270.394L389.711 268.473Z" fill="#04146C"/>
<path d="M373.053 270.88L370.369 251.941L356.908 253.862L359.592 272.801L373.053 270.88Z" fill="#04146C"/>
<path opacity="0.2" d="M373.059 270.882L370.375 251.943L356.914 253.864L359.598 272.803L373.059 270.882Z" fill="#04146C"/>
<path d="M356.415 273.241L353.727 254.27L340.266 256.191L342.954 275.162L356.415 273.241Z" fill="#04146C"/>
<path opacity="0.3" d="M356.415 273.241L353.727 254.27L340.266 256.191L342.954 275.163L356.415 273.241Z" fill="#04146C"/>
<path d="M12.3827 14.292H104.684V73.1478H12.3827V14.292Z" fill="white" stroke="#04146C" stroke-width="2.38528" stroke-linecap="round" stroke-linejoin="round"/>
<path d="M12.3827 55.766L22.6462 66.066L50.4084 38.205L62.0859 49.9241L80.704 31.2397L104.684 55.2929V73.1495H12.3827V55.766Z" fill="#04146C" stroke="#04146C" stroke-width="2.38528" stroke-linecap="round" stroke-linejoin="round"/>
<path d="M31.5071 37.5415C27.9082 37.5415 24.9908 34.6136 24.9908 31.0019C24.9908 27.3903 27.9082 24.4624 31.5071 24.4624C35.106 24.4624 38.0234 27.3903 38.0234 31.0019C38.0234 34.6136 35.106 37.5415 31.5071 37.5415Z" fill="#04146C" stroke="#04146C" stroke-width="0.795094" stroke-linecap="round" stroke-linejoin="round"/>
<rect x="18" y="151" width="111.456" height="22.4413" fill="#3FFFF3"/>
</svg>
